o BasicCube
mtllib defaultcube.mtl
# front face (-z)
v -1 -1 -1 # 1
v -1 1 -1  # 2
v 1 1 -1   # 3
v 1 -1 -1  # 4
vt 0 0
vt 0 1
vt 1 1
vt 1 0
vn 0 0 -1
vn 0 0 -1
vn 0 0 -1
vn 0 0 -1
usemtl ZMINUS
f 1/1/1 2/2/2 3/3/3
f 1/1/1 3/3/3 4/4/4

# back face (+z)
v 1 -1 1   # 5
v 1 1 1    # 6
v -1 1 1   # 7
v -1 -1 1  # 8
vt 0 0
vt 0 1
vt 1 1
vt 1 0
vn 0 0 1
vn 0 0 1
vn 0 0 1
vn 0 0 1
usemtl ZPLUS
f 5/5/5 6/6/6 7/7/7
f 5/5/5 7/7/7 8/8/8

# left face (-x)
v -1 -1 1   # 9
v -1 1 1    # 10
v -1 1 -1   # 11
v -1 -1 -1  # 12
vt 0 0
vt 0 1
vt 1 1
vt 1 0
vn -1 0 0
vn -1 0 0
vn -1 0 0
vn -1 0 0

usemtl XMINUS
f 9/9/9 10/10/10 11/11/11
f 9/9/9 11/11/11 12/12/12

# right face (+x)
v 1 -1 -1   # 13
v 1 1 -1    # 14
v 1 1 1     # 15
v 1 -1 1    # 16
vt 0 0
vt 0 1
vt 1 1
vt 1 0
vn 1 0 0
vn 1 0 0
vn 1 0 0
vn 1 0 0

usemtl XPLUS
f 13/13/13 14/14/14 15/15/15
f 13/13/13 15/15/15 16/16/16

# bottom face (-y)
v -1 -1 1     # 17
v -1 -1 -1    # 18
v 1 -1 -1     # 19
v 1 -1 1      # 20
vt 0 0
vt 0 1
vt 1 1
vt 1 0
vn 0 -1 0
vn 0 -1 0
vn 0 -1 0
vn 0 -1 0

usemtl YMINUS
f 17/17/17 18/18/18 19/19/19
f 17/17/17 19/19/19 20/20/20

# top face (+y)
v -1 1 -1    # 21
v -1 1 1    # 22
v 1 1 1     # 23
v 1 1 -1      # 24
vt 0 0
vt 0 1
vt 1 1
vt 1 0
vn 0 1 0
vn 0 1 0
vn 0 1 0
vn 0 1 0

usemtl YPLUS
f 21/21/21 22/22/22 23/23/23
f 21/21/21 23/23/23 24/24/24